<svg width="48" height="48" viewBox="0 0 48 48" fill="none" xmlns="http://www.w3.org/2000/svg">
<path d="M18 13.2C15.6 14 14 15.6 13 18H10V20H12.8V20.8C12.8 23 13.6 24.8 15.2 26.4L16 27.2L15 30C14.8 30.6 14.6 31.2 14.6 32C14.6 33.2 15 34.4 15.8 35.4C16.6 36.6 17.6 37.2 18.6 37.6C20 38 21.2 38 22.6 37.6C24 37 25 36.4 25.6 35.4C28.6 36.2 31.2 35.6 33.4 33.4C35 31.8 35.8 30 35.8 27.8C35.8 26.8 35.8 26.2 35.6 25.6C37.2 24.4 38.2 22.8 38.2 20.8C38.2 20.2 38.2 19.4 38 18.8C37.6 17.6 36.8 16.8 35.8 16C34.6 15.2 33.6 14.8 32.4 14.8C31.6 14.8 31 14.8 30.4 15L27.2 16L26.4 14.8C24.8 13.2 22.6 12.4 20.2 12.6V9.99999H18V13.2ZM22.6 32.6C22 33.8 21.2 34.2 20 33.8C18.8 33.4 18.4 32.6 18.8 31.4L21.2 25C22.8 28.2 23.2 30.6 22.6 32.6ZM33.8 20C34.2 21.2 33.8 22 32.6 22.6C30.6 23.2 28.2 22.8 25 21.2L31.2 18.8C32.6 18.4 33.4 18.8 33.8 20ZM23.2 17.6L20 18.8H19.8L19.2 19.4V19.6L18 22.8C17.4 22 17 21.2 17 20.2C17 19.2 17.4 18.2 18.2 17.4C19 16.6 19.8 16.2 20.8 16.2C21.4 16.6 22.4 17 23.2 17.6Z" fill="black"/>
</svg>
