<svg width="48" height="48" viewBox="0 0 48 48" fill="none" xmlns="http://www.w3.org/2000/svg">
<path d="M16 4L19.76 7.76M28.24 7.76L32 4M18 14V12C18 10.4087 18.6321 8.88258 19.7573 7.75736C20.8825 6.63214 22.4087 6 24 6C25.5913 6 27.1174 6.63214 28.2426 7.75736C29.3678 8.88258 30 10.4087 30 12V14M15.12 24H32.86M15 34H33M9.99997 14C9.01589 14.0191 8.05162 14.2799 7.19215 14.7596C6.33269 15.2393 5.60442 15.923 5.07156 16.7506C4.5387 17.5781 4.2176 18.524 4.13658 19.505C4.05555 20.4859 4.21709 21.4717 4.60695 22.3754C4.9968 23.2792 5.60301 24.0731 6.37212 24.6873C7.14123 25.3015 8.04963 25.7171 9.01724 25.8974C9.98485 26.0776 10.9819 26.0171 11.9206 25.7211C12.8593 25.4251 13.7108 24.9027 14.4 24.2C18.2 20 24 14 24 14C24 14 29.8 20 33.6 24.2C34.2891 24.9027 35.1406 25.4251 36.0793 25.7211C37.018 26.0171 38.0151 26.0776 38.9827 25.8974C39.9503 25.7171 40.8587 25.3015 41.6278 24.6873C42.3969 24.0731 43.0031 23.2792 43.393 22.3754C43.7828 21.4717 43.9444 20.4859 43.8634 19.505C43.7823 18.524 43.4612 17.5781 42.9284 16.7506C42.3955 15.923 41.6672 15.2393 40.8078 14.7596C39.9483 14.2799 38.984 14.0191 38 14H9.99997Z" stroke="black" stroke-width="4" stroke-linecap="round" stroke-linejoin="round"/>
<path d="M31 21.4C32.8 23.2 33.8 25.6 34 28C34 39.6 24 44 24 44C24 44 14 39.6 14 28C14.2 25.6 15.2 23.2 17 21.4" stroke="black" stroke-width="4" stroke-linecap="round" stroke-linejoin="round"/>
</svg>
